<svg xmlns="http://www.w3.org/2000/svg" xmlns:xlink="http://www.w3.org/1999/xlink">

  <symbol id="flickr" fill-rule="evenodd" clip-rule="evenodd" stroke-linejoin="round" stroke-miterlimit="1.414">
    <path d="M0 8c0 2.05 1.662 3.71 3.71 3.71 2.05 0 3.713-1.66 3.713-3.71S5.76 4.29 3.71 4.29C1.663 4.29 0 5.95 0 8zm8.577 0c0 2.05 1.662 3.71 3.712 3.71C14.33 11.71 16 10.05 16 8s-1.662-3.71-3.71-3.71c-2.05 0-3.713 1.66-3.713 3.71z" />
  </symbol>

  <symbol id="github" fill-rule="evenodd" clip-rule="evenodd" stroke-linejoin="round" stroke-miterlimit="1.414">
    <path d="M8 0C3.58 0 0 3.582 0 8c0 3.535 2.292 6.533 5.47 7.59.4.075.547-.172.547-.385 0-.19-.007-.693-.01-1.36-2.226.483-2.695-1.073-2.695-1.073-.364-.924-.89-1.17-.89-1.17-.725-.496.056-.486.056-.486.803.056 1.225.824 1.225.824.714 1.223 1.873.87 2.33.665.072-.517.278-.87.507-1.07-1.777-.2-3.644-.888-3.644-3.953 0-.873.31-1.587.823-2.147-.09-.202-.36-1.015.07-2.117 0 0 .67-.215 2.2.82.64-.178 1.32-.266 2-.27.68.004 1.36.092 2 .27 1.52-1.035 2.19-.82 2.19-.82.43 1.102.16 1.915.08 2.117.51.56.82 1.274.82 2.147 0 3.073-1.87 3.75-3.65 3.947.28.24.54.73.54 1.48 0 1.07-.01 1.93-.01 2.19 0 .21.14.46.55.38C13.71 14.53 16 11.53 16 8c0-4.418-3.582-8-8-8" />
  </symbol>



  <symbol id="linkedin" fill-rule="evenodd" clip-rule="evenodd" stroke-linejoin="round" stroke-miterlimit="1.414">
    <path d="M13.632 13.635h-2.37V9.922c0-.886-.018-2.025-1.234-2.025-1.235 0-1.424.964-1.424 1.96v3.778h-2.37V6H8.51v1.04h.03c.318-.6 1.092-1.233 2.247-1.233 2.4 0 2.845 1.58 2.845 3.637v4.188zM3.558 4.955c-.762 0-1.376-.617-1.376-1.377 0-.758.614-1.375 1.376-1.375.76 0 1.376.617 1.376 1.375 0 .76-.617 1.377-1.376 1.377zm1.188 8.68H2.37V6h2.376v7.635zM14.816 0H1.18C.528 0 0 .516 0 1.153v13.694C0 15.484.528 16 1.18 16h13.635c.652 0 1.185-.516 1.185-1.153V1.153C16 .516 15.467 0 14.815 0z"
      fill-rule="nonzero" />
  </symbol>


  <symbol id="rss" fill-rule="evenodd" clip-rule="evenodd" stroke-linejoin="round" stroke-miterlimit="1.414">
    <path d="M12.8 16C12.8 8.978 7.022 3.2 0 3.2V0c8.777 0 16 7.223 16 16h-3.2zM2.194 11.61c1.21 0 2.195.985 2.195 2.196 0 1.21-.99 2.194-2.2 2.194C.98 16 0 15.017 0 13.806c0-1.21.983-2.195 2.194-2.195zM10.606 16h-3.11c0-4.113-3.383-7.497-7.496-7.497v-3.11c5.818 0 10.606 4.79 10.606 10.607z" />
  </symbol>


  <symbol id="twitter" fill-rule="evenodd" clip-rule="evenodd" stroke-linejoin="round" stroke-miterlimit="1.414">
    <path d="M16 3.038c-.59.26-1.22.437-1.885.517.677-.407 1.198-1.05 1.443-1.816-.634.37-1.337.64-2.085.79-.598-.64-1.45-1.04-2.396-1.04-1.812 0-3.282 1.47-3.282 3.28 0 .26.03.51.085.75-2.728-.13-5.147-1.44-6.766-3.42C.83 2.58.67 3.14.67 3.75c0 1.14.58 2.143 1.46 2.732-.538-.017-1.045-.165-1.487-.41v.04c0 1.59 1.13 2.918 2.633 3.22-.276.074-.566.114-.865.114-.21 0-.41-.02-.61-.058.42 1.304 1.63 2.253 3.07 2.28-1.12.88-2.54 1.404-4.07 1.404-.26 0-.52-.015-.78-.045 1.46.93 3.18 1.474 5.04 1.474 6.04 0 9.34-5 9.34-9.33 0-.14 0-.28-.01-.42.64-.46 1.2-1.04 1.64-1.7z"
      fill-rule="nonzero" />
  </symbol>


  <symbol id="mastodon" fill-rule="evenodd" clip-rule="evenodd" stroke-linejoin="round" stroke-miterlimit="1.414">
    <path transform="scale(0.07)" d="M211.80734 139.0875c-3.18125 16.36625-28.4925 34.2775-57.5625 37.74875-15.15875 1.80875-30.08375 3.47125-45.99875 2.74125-26.0275-1.1925-46.565-6.2125-46.565-6.2125 0 2.53375.15625 4.94625.46875 7.2025 3.38375 25.68625 25.47 27.225 46.39125 27.9425 21.11625.7225 39.91875-5.20625 39.91875-5.20625l.8675 19.09s-14.77 7.93125-41.08125 9.39c-14.50875.7975-32.52375-.365-53.50625-5.91875C9.23234 213.82 1.40609 165.31125.20859 116.09125c-.365-14.61375-.14-28.39375-.14-39.91875 0-50.33 32.97625-65.0825 32.97625-65.0825C49.67234 3.45375 78.20359.2425 107.86484 0h.72875c29.66125.2425 58.21125 3.45375 74.8375 11.09 0 0 32.975 14.7525 32.975 65.0825 0 0 .41375 37.13375-4.59875 62.915" />
    <path transform="scale(0.07)" fill="#FFF" d="M177.50984 80.077v60.94125h-24.14375v-59.15c0-12.46875-5.24625-18.7975-15.74-18.7975-11.6025 0-17.4175 7.5075-17.4175 22.3525v32.37625H96.20734V85.42325c0-14.845-5.81625-22.3525-17.41875-22.3525-10.49375 0-15.74 6.32875-15.74 18.7975v59.15H38.90484V80.077c0-12.455 3.17125-22.3525 9.54125-29.675 6.56875-7.3225 15.17125-11.07625 25.85-11.07625 12.355 0 21.71125 4.74875 27.8975 14.2475l6.01375 10.08125 6.015-10.08125c6.185-9.49875 15.54125-14.2475 27.8975-14.2475 10.6775 0 19.28 3.75375 25.85 11.07625 6.36875 7.3225 9.54 17.22 9.54 29.675" />
  </symbol>


</svg>